# xmcd
#
# Track frame offsets: 
#        150
#        19526
#        44292
#        70229
#        92758
#        106435
#        125631
#        161447
#        184509
#        200221
#
# Disc length: 2857 seconds
#
# Revision: 0
# Processed by: cddbd v1.5.2PL0 Copyright (c) Steve Scherf et al.
# Submitted via: ExactAudioCopy v1.0b1
#
DISCID=850b270a
DTITLE=Various Artist - Tinh Khuc Pham Duy [CD4)
DYEAR=2001
DGENRE=Blues
TTITLE0=Phuong Dung - Nuoc Non Ngan Dam Ra Di
TTITLE1=Phuong Hung - Vet Thu Tren Lung Ngua Hoang
TTITLE2=Khanh Ly, Le Thu - Giot Mua Tren La
TTITLE3=Elvis Phuong, Khanh Ly - Qua Cau Gio Bay
TTITLE4=Huong Lan - Ba Me Que
TTITLE5=Luu Hong - Pho Buon
TTITLE6=Duy Khanh, Khanh Ha - Vo Chong Que
TTITLE7=Nhom TikTikTac - Gai Xuan
TTITLE8=Elvis Phuong, Thanh Lan - Hoi Trang Ram: Trong Com
TTITLE9=Huong Lan, Duy Khanh - Tinh Ngheo
EXTD=
EXTT0=
EXTT1=
EXTT2=
EXTT3=
EXTT4=
EXTT5=
EXTT6=
EXTT7=
EXTT8=
EXTT9=
PLAYORDER=
